{"title":"Cloud Atlas (2012) CAMRip [Russian]","uid":7812428,"size":739162112,"categoryP":"video","categoryS":"movies","magnet":"?xt=urn:btih:83d3d0a252625f32940137aa0e02d895709ba3f6&amp;dn=Cloud+Atlas+%282012%29+CAMRip+%5BRussian%5D&amp;tr=udp%3A%2F%2Ftracker.openbittorrent.com%3A80&amp;tr=udp%3A%2F%2Fopen.demonii.com%3A1337&amp;tr=udp%3A%2F%2Ftracker.coppersurfer.tk%3A6969&amp;tr=udp%3A%2F%2Fexodus.desync.com%3A6969","seeders":0,"leechers":0,"uploader":"nana35","files":-1,"time":1352566376,"description":" An exploration of how the actions of individual lives impact one another in the past, present and future, as one soul is shaped from a killer into a hero, and an act of kindness ripples across centuries to inspire a revolution.\n\nsample:\n\nscreens:  &lt;a href=&quot;\nhttp://img138.imageshack.us/img138/544/grabao.png&quot; rel=&quot;nofollow&quot; target=&quot;_NEW&quot;&gt;\nhttp://img138.imageshack.us/img138/544/grabao.png&lt;/a&gt; &lt;a href=&quot;\nhttp://img22.imageshack.us/img22/6702/grab2e.png&quot; rel=&quot;nofollow&quot; target=&quot;_NEW&quot;&gt;\nhttp://img22.imageshack.us/img22/6702/grab2e.png&lt;/a&gt; &lt;a href=&quot;\nhttp://img560.imageshack.us/img560/1121/grab3px.png&quot; rel=&quot;nofollow&quot; target=&quot;_NEW&quot;&gt;\nhttp://img560.imageshack.us/img560/1121/grab3px.png&lt;/a&gt; &lt;a href=&quot;\nhttp://img827.imageshack.us/img827/6887/grab4q.png&quot; rel=&quot;nofollow&quot; target=&quot;_NEW&quot;&gt;\nhttp://img827.imageshack.us/img827/6887/grab4q.png&lt;/a&gt; &lt;a href=&quot;\nhttp://img141.imageshack.us/img141/9208/grab5so.png&quot; rel=&quot;nofollow&quot; target=&quot;_NEW&quot;&gt;\nhttp://img141.imageshack.us/img141/9208/grab5so.png&lt;/a&gt; &lt;a href=&quot;\nhttp://img35.imageshack.us/img35/1033/grab6c.png&quot; rel=&quot;nofollow&quot; target=&quot;_NEW&quot;&gt;\nhttp://img35.imageshack.us/img35/1033/grab6c.png&lt;/a&gt; &lt;a href=&quot;\nhttp://img201.imageshack.us/img201/2558/grab7b.png&quot; rel=&quot;nofollow&quot; target=&quot;_NEW&quot;&gt;\nhttp://img201.imageshack.us/img201/2558/grab7b.png&lt;/a&gt; &lt;a href=&quot;\nhttp://img163.imageshack.us/img163/7796/grab8k.png&quot; rel=&quot;nofollow&quot; target=&quot;_NEW&quot;&gt;\nhttp://img163.imageshack.us/img163/7796/grab8k.png&lt;/a&gt; &lt;a href=&quot;\nhttp://img703.imageshack.us/img703/6558/grab9r.png&quot; rel=&quot;nofollow&quot; target=&quot;_NEW&quot;&gt;\nhttp://img703.imageshack.us/img703/6558/grab9r.png&lt;/a&gt;\n\nMediaInfo 0.7.61:\nGeneral\nFormat                                   : AVI\nFormat/Info                              : Audio Video Interleave\nFile size                                : 705 MiB\nDuration                                 : 2h 39mn\nOverall bit rate                         : 616 Kbps\nWriting application                      : VirtualDubMod 1.5.10.2 (build 2542/release)\nWriting library                          : VirtualDubMod build 2542/release\n\nVideo\nID                                       : 0\nFormat                                   : MPEG-4 Visual\nFormat profile                           : Advanced Simple@L5\nFormat settings, BVOP                    : 2\nFormat settings, QPel                    : No\nFormat settings, GMC                     : No warppoints\nFormat settings, Matrix                  : Default (MPEG)\nCodec ID                                 : XVID\nCodec ID/Hint                            : XviD\nDuration                                 : 2h 39mn\nBit rate                                 : 479 Kbps\nWidth                                    : 656 pixels\nHeight                                   : 240 pixels\nDisplay aspect ratio                     : 2.733\nFrame rate                               : 25.000 fps\nColor space                              : YUV\nChroma subsampling                       : 4:2:0\nBit depth                                : 8 bits\nScan type                                : Progressive\nCompression mode                         : Lossy\nBits/(Pixel*Frame)                       : 0.122\nStream size                              : 547 MiB (78%)\nWriting library                          : XviD 1.2.1 (UTC 2008-12-04)\n\nAudio\nID                                       : 1\nFormat                                   : AC-3\nFormat/Info                              : Audio Coding 3\nMode extension                           : CM (complete main)\nFormat settings, Endianness              : Big\nCodec ID                                 : 2000\nDuration                                 : 2h 39mn\nBit rate mode                            : Constant\nBit rate                                 : 128 Kbps\nChannel(s)                               : 2 channels\nChannel positions                        : Front: L R\nSampling rate                            : 48.0 KHz\nBit depth                                : 16 bits\nCompression mode                         : Lossy\nStream size                              : 146 MiB (21%)\nAlignment                                : Split accross interleaves\nInterleave, duration                     : 40 ms (1.00 video frame)\nInterleave, preload duration             : 500 ms","torrent":{"xt":"urn:btih:83d3d0a252625f32940137aa0e02d895709ba3f6","amp;dn":"Cloud+Atlas+%282012%29+CAMRip+%5BRussian%5D","amp;tr":["udp%3A%2F%2Ftracker.openbittorrent.com%3A80","udp%3A%2F%2Fopen.demonii.com%3A1337","udp%3A%2F%2Ftracker.coppersurfer.tk%3A6969","udp%3A%2F%2Fexodus.desync.com%3A6969"],"infoHash":"83d3d0a252625f32940137aa0e02d895709ba3f6","infoHashBuffer":{"type":"Buffer","data":[131,211,208,162,82,98,95,50,148,1,55,170,14,2,216,149,112,155,163,246]},"announce":[],"urlList":[]}}